<?xml version="1.0" standalone="no"?>
<!DOCTYPE svg PUBLIC "-//W3C//DTD SVG 20010904//EN"
 "http://www.w3.org/TR/2001/REC-SVG-20010904/DTD/svg10.dtd">
<svg version="1.0" xmlns="http://www.w3.org/2000/svg"
 width="500.000000pt" height="500.000000pt" viewBox="0 0 500.000000 500.000000"
 preserveAspectRatio="xMidYMid meet">

<g transform="translate(0.000000,500.000000) scale(0.100000,-0.100000)"
fill="#000000" stroke="none">
<path d="M0 2500 l0 -2500 2500 0 2500 0 0 2500 0 2500 -2500 0 -2500 0 0
-2500z m2592 740 c25 -21 48 -30 73 -30 70 0 126 -47 146 -122 18 -66 1 -116
-56 -166 -41 -36 -45 -44 -45 -86 l0 -46 -77 82 c-43 44 -77 85 -75 91 7 23
-22 67 -74 112 -30 26 -58 44 -62 40 -4 -4 15 -26 43 -50 27 -24 47 -47 43
-50 -4 -4 -30 12 -57 36 -69 58 -77 42 -10 -20 32 -30 48 -50 39 -51 -9 0 -34
18 -55 40 -21 22 -46 40 -55 40 -9 -1 7 -21 39 -51 67 -62 59 -78 -10 -20 -27
24 -53 40 -56 37 -4 -4 -2 -10 3 -15 93 -86 116 -101 153 -101 32 0 44 -6 67
-32 50 -61 91 -183 79 -240 l-7 -28 -179 0 -179 0 0 140 0 141 -36 32 c-34 29
-64 80 -64 108 0 6 31 -18 70 -54 38 -37 81 -74 95 -83 16 -11 25 -26 25 -43
0 -36 33 -87 72 -111 42 -25 63 -25 89 1 16 16 20 28 15 52 -10 51 -76 107
-125 107 -29 0 -93 60 -123 117 -33 61 -56 159 -41 174 6 6 33 14 60 16 26 3
57 14 68 24 61 55 144 59 207 9z m-142 -370 c0 -5 -6 -10 -14 -10 -7 0 -21
-10 -29 -22 -11 -16 -16 -18 -16 -8 -1 19 10 36 29 43 23 9 30 8 30 -3z m-579
-470 c28 -16 49 -63 49 -115 0 -45 0 -45 -35 -45 -33 0 -35 2 -35 33 0 44 -20
70 -51 65 l-24 -3 0 -180 0 -180 24 -3 c33 -5 51 21 51 75 0 42 0 43 35 43
l35 0 0 -66 c0 -58 -3 -69 -28 -93 -35 -36 -90 -46 -136 -27 -60 25 -70 52
-74 203 -6 181 2 239 38 275 24 23 37 28 80 28 28 0 60 -5 71 -10z m179 -100
l0 -110 45 0 45 0 0 110 0 110 40 0 40 0 0 -255 0 -255 -40 0 -40 0 0 110 0
110 -45 0 -45 0 0 -110 0 -110 -40 0 -40 0 0 255 0 255 40 0 40 0 0 -110z
m448 73 l-3 -38 -68 -3 -68 -3 3 -67 3 -67 53 -3 52 -3 0 -35 0 -34 -55 0 -55
0 0 -75 0 -75 70 0 70 0 0 -35 0 -35 -110 0 -110 0 0 255 0 255 111 0 110 0
-3 -37z m262 -3 l0 -40 -65 0 -65 0 0 -75 0 -75 50 0 50 0 0 -35 0 -35 -50 0
-50 0 0 -105 0 -105 -40 0 -40 0 0 255 0 255 105 0 105 0 0 -40z m225 24 c28
-18 45 -62 45 -115 0 -39 0 -39 -39 -39 l-40 0 -3 48 c-3 41 -6 47 -27 50 -44
7 -51 -18 -51 -183 0 -165 7 -190 51 -183 22 3 24 8 27 61 l3 57 39 0 40 0 0
-57 c0 -76 -25 -118 -78 -133 -75 -20 -143 15 -156 81 -3 18 -6 99 -6 181 0
161 9 202 51 232 30 21 112 21 144 0z m295 -12 c36 -36 44 -94 38 -277 -4
-155 -15 -180 -87 -204 -52 -17 -103 -1 -135 42 -19 26 -21 44 -24 190 -2 99
1 176 7 199 17 54 52 78 118 78 47 0 59 -4 83 -28z m-1383 -675 c27 -26 28
-32 28 -127 0 -94 -1 -101 -27 -126 -19 -20 -39 -28 -77 -32 l-51 -5 0 -93 0
-94 -40 0 -40 0 0 256 0 256 90 -4 c82 -3 92 -5 117 -31z m253 21 c0 -14 68
-445 75 -476 5 -22 3 -23 -37 -20 -42 3 -43 4 -48 43 l-5 40 -52 3 c-53 3 -53
3 -53 -27 0 -49 -9 -61 -46 -61 -19 0 -34 5 -34 10 0 12 68 433 76 473 5 26 8
27 65 27 38 0 59 -4 59 -12z m299 -9 c26 -24 41 -59 41 -95 0 -21 -4 -24 -39
-24 -37 0 -40 2 -43 33 -2 27 -8 33 -30 35 -22 3 -30 -2 -38 -23 -14 -36 7
-80 65 -135 82 -79 105 -155 67 -230 -12 -25 -28 -39 -56 -48 -92 -30 -166 25
-166 124 0 33 1 34 39 34 40 0 40 0 43 -42 3 -36 7 -44 26 -46 32 -5 52 15 52
49 0 22 -17 47 -70 104 -76 82 -96 129 -84 192 4 21 20 50 35 65 23 24 36 28
81 28 41 0 60 -5 77 -21z m309 -16 c-3 -36 -5 -38 -40 -41 l-38 -3 0 -215 0
-214 -40 0 -40 0 0 214 0 215 -42 3 c-42 3 -43 4 -46 41 l-3 37 126 0 126 0
-3 -37z m254 -193 c48 -294 48 -280 -2 -280 -35 0 -40 3 -40 23 0 57 -9 67
-60 67 l-48 0 -6 -45 c-7 -43 -9 -45 -42 -45 -25 0 -34 4 -34 16 0 21 69 464
75 482 3 9 22 12 62 10 l58 -3 37 -225z m257 214 c25 -18 51 -71 51 -104 0
-17 -6 -20 -39 -20 -35 0 -40 3 -43 26 -7 64 -74 55 -72 -10 1 -30 12 -47 67
-105 73 -77 92 -121 83 -186 -12 -78 -76 -116 -158 -95 -49 14 -78 57 -78 118
l0 43 38 -3 c35 -3 37 -5 42 -43 4 -34 9 -40 32 -43 19 -2 30 3 38 18 18 35 3
68 -60 134 -33 34 -66 79 -75 99 -26 64 -17 126 26 166 29 26 113 29 148 5z"/>
<path d="M3161 2321 c-7 -11 -11 -82 -11 -168 0 -163 7 -188 51 -181 l24 3 0
180 0 180 -27 3 c-18 2 -30 -3 -37 -17z"/>
<path d="M1770 1580 c0 -89 9 -103 56 -81 24 10 25 15 22 83 l-3 73 -37 3 -38
3 0 -81z"/>
<path d="M2081 1625 c-1 -5 -8 -53 -16 -105 -21 -134 -21 -130 21 -130 l35 0
-7 48 c-14 96 -32 197 -33 187z"/>
<path d="M2906 1600 c-3 -14 -12 -67 -19 -117 l-14 -93 39 0 38 0 -6 38 c-28
180 -31 196 -38 172z"/>
</g>
</svg>
