<?xml version="1.0" encoding="UTF-8"?>
<!DOCTYPE svg PUBLIC "-//W3C//DTD SVG 1.1//EN" "http://www.w3.org/Graphics/SVG/1.1/DTD/svg11.dtd">
<svg xmlns="http://www.w3.org/2000/svg" version="1.1" width="684px" height="680px" style="shape-rendering:geometricPrecision; text-rendering:geometricPrecision; image-rendering:optimizeQuality; fill-rule:evenodd; clip-rule:evenodd" xmlns:xlink="http://www.w3.org/1999/xlink">
<g><path style="opacity:1" fill="#fefefe" d="M -0.5,-0.5 C 227.5,-0.5 455.5,-0.5 683.5,-0.5C 683.5,226.167 683.5,452.833 683.5,679.5C 455.5,679.5 227.5,679.5 -0.5,679.5C -0.5,452.833 -0.5,226.167 -0.5,-0.5 Z"/></g>
<g><path style="opacity:1" fill="#010101" d="M 518.5,183.5 C 518.973,184.906 519.973,185.573 521.5,185.5C 525.97,188.425 530.303,192.258 534.5,197C 534.167,197.333 533.833,197.667 533.5,198C 535.705,200.54 538.205,202.707 541,204.5C 541.513,206.521 542.68,208.021 544.5,209C 543.72,210.073 543.887,211.24 545,212.5C 546.059,214.659 547.559,216.326 549.5,217.5C 549.062,217.435 548.728,217.601 548.5,218C 549.488,220.167 550.821,222 552.5,223.5C 553.588,225.4 554.922,227.567 556.5,230C 555.366,231.016 555.699,231.683 557.5,232C 557.5,233.333 557.5,234.667 557.5,236C 559.569,236.324 559.902,237.158 558.5,238.5C 559.098,239.795 559.598,241.128 560,242.5C 560.654,241.304 561.154,241.304 561.5,242.5C 561.166,244.335 561.166,246.002 561.5,247.5C 562.025,248.192 562.692,248.692 563.5,249C 563.475,251.654 563.475,254.321 563.5,257C 563.905,257.945 564.572,258.612 565.5,259C 564.199,265.624 564.199,272.29 565.5,279C 564.833,280 564.167,281 563.5,282C 563.888,284.474 563.888,286.807 563.5,289C 562.944,290.011 562.278,290.844 561.5,291.5C 560.962,293.117 560.629,294.784 560.5,296.5C 558.1,301.032 556.433,306.032 555.5,311.5C 552.953,314.206 550.953,317.872 549.5,322.5C 548.055,324.133 546.721,325.966 545.5,328C 546.634,329.016 546.301,329.683 544.5,330C 544.833,330.333 545.167,330.667 545.5,331C 542.944,332.055 541.277,333.888 540.5,336.5C 539.094,336.973 538.427,337.973 538.5,339.5C 537.833,339.5 537.5,339.833 537.5,340.5C 536.094,340.973 535.427,341.973 535.5,343.5C 531.902,348.636 527.402,353.636 522,358.5C 521.667,358.167 521.333,357.833 521,357.5C 518,360.167 515,362.833 512,365.5C 511,365.5 510,365.5 509,365.5C 505.374,368.552 501.541,372.052 497.5,376C 497.833,376.333 498.167,376.667 498.5,377C 494.742,378.8 493.409,381.633 494.5,385.5C 492.812,386.766 492.479,388.599 493.5,391C 492.909,393.239 492.242,395.406 491.5,397.5C 491.829,411.344 491.496,425.01 490.5,438.5C 473.449,422.617 457.282,405.95 442,388.5C 434.97,381.135 427.636,374.135 420,367.5C 419.667,366.5 419.333,365.5 419,364.5C 414.632,361.653 411.465,358.32 409.5,354.5C 409.573,352.973 408.906,351.973 407.5,351.5C 405.316,347.299 402.316,343.799 398.5,341C 398.5,340 398.5,339 398.5,338C 396.819,334.417 394.819,331.751 392.5,330C 392.957,329.586 393.291,329.086 393.5,328.5C 392.833,328.167 392.167,327.833 391.5,327.5C 391.709,326.914 392.043,326.414 392.5,326C 391.417,324.471 390.417,322.971 389.5,321.5C 389.833,320.833 390.167,320.167 390.5,319.5C 389.559,319.511 388.892,319.011 388.5,318C 388.735,317.127 389.069,316.293 389.5,315.5C 388.559,315.511 387.892,315.011 387.5,314C 388.802,312.077 388.635,310.243 387,308.5C 385.334,309.34 385.167,308.84 386.5,307C 384.699,306.683 384.366,306.016 385.5,305C 383.699,304.683 383.366,304.016 384.5,303C 380.692,294.769 374.692,287.103 366.5,280C 366.833,279.667 367.167,279.333 367.5,279C 358.667,271.5 350.5,263.333 343,254.5C 342.667,254.833 342.333,255.167 342,255.5C 336.334,251.169 331.001,245.835 326,239.5C 324.927,240.28 323.76,240.113 322.5,239C 319.097,236.719 316.263,233.886 314,230.5C 313.667,230.833 313.333,231.167 313,231.5C 311.333,229.833 309.667,228.167 308,226.5C 307.667,226.833 307.333,227.167 307,227.5C 305.581,226.54 304.081,225.707 302.5,225C 302.833,224.667 303.167,224.333 303.5,224C 302.5,223.333 301.5,223.333 300.5,224C 301.833,225.333 301.833,226.667 300.5,228C 302.301,228.317 302.634,228.984 301.5,230C 303.167,233 305.5,235.333 308.5,237C 308.167,237.333 307.833,237.667 307.5,238C 319.217,249.391 330.883,261.391 342.5,274C 342.167,274.333 341.833,274.667 341.5,275C 345.868,278.034 349.534,281.701 352.5,286C 351.959,288.865 353.293,290.865 356.5,292C 355.167,293.84 355.334,294.34 357,293.5C 357.667,294.5 357.667,295.5 357,296.5C 355.887,295.289 354.72,295.289 353.5,296.5C 351.843,294.295 349.343,292.295 346,290.5C 345.667,290.833 345.333,291.167 345,291.5C 341.283,288.606 337.783,285.606 334.5,282.5C 333.758,280.65 332.758,279.984 331.5,280.5C 325.529,275.201 319.862,270.201 314.5,265.5C 313.145,263.071 311.478,261.738 309.5,261.5C 306.987,259.01 304.487,256.677 302,254.5C 300.057,254.959 298.724,253.959 298,251.5C 297.667,251.833 297.333,252.167 297,252.5C 295.786,250.951 294.286,249.785 292.5,249C 292.833,248.667 293.167,248.333 293.5,248C 292.24,246.887 291.073,246.72 290,247.5C 289.683,245.699 289.016,245.366 288,246.5C 286.937,245.562 285.77,244.562 284.5,243.5C 283.199,244.478 282.032,244.145 281,242.5C 280.5,242.667 280,242.833 279.5,243C 280.711,244.113 280.711,245.28 279.5,246.5C 282.5,248.932 285.166,252.265 287.5,256.5C 288.438,259.157 290.438,261.49 293.5,263.5C 302.744,270.909 311.244,279.242 319,288.5C 319.333,288.167 319.667,287.833 320,287.5C 323.167,290.667 326.333,293.833 329.5,297C 329.167,297.333 328.833,297.667 328.5,298C 331.509,301.342 334.843,304.342 338.5,307C 338.167,307.333 337.833,307.667 337.5,308C 339.679,308.442 340.345,309.442 339.5,311C 340.191,312.067 340.691,313.234 341,314.5C 341.654,313.304 342.154,313.304 342.5,314.5C 342.113,315.72 341.28,316.387 340,316.5C 339.645,315.491 338.812,314.824 337.5,314.5C 335.614,313.639 333.78,312.639 332,311.5C 331.601,311.728 331.435,312.062 331.5,312.5C 324.22,308.207 317.553,303.207 311.5,297.5C 310.462,295.372 309.129,294.372 307.5,294.5C 304.222,292.891 301.556,290.557 299.5,287.5C 298.758,285.65 297.758,284.984 296.5,285.5C 293.32,282.344 290.154,279.344 287,276.5C 286.667,276.833 286.333,277.167 286,277.5C 282.499,275.512 279.332,273.178 276.5,270.5C 275.341,268.75 273.674,267.75 271.5,267.5C 269.792,267.377 267.959,267.044 266,266.5C 265.833,267 265.667,267.5 265.5,268C 266.868,270.576 268.868,273.243 271.5,276C 271.167,276.333 270.833,276.667 270.5,277C 271.571,277.852 272.571,278.685 273.5,279.5C 273.738,281.478 275.071,283.145 277.5,284.5C 289.663,297.256 302.329,309.423 315.5,321C 315.167,321.333 314.833,321.667 314.5,322C 320.407,326.115 324.074,331.282 325.5,337.5C 323.549,337.773 322.049,337.107 321,335.5C 320.586,335.957 320.086,336.291 319.5,336.5C 317.664,335.081 315.664,333.914 313.5,333C 305.514,327.146 297.848,320.98 290.5,314.5C 289.462,312.372 288.129,311.372 286.5,311.5C 282.245,309.081 278.745,305.748 276,301.5C 275.667,301.833 275.333,302.167 275,302.5C 266.647,295.982 258.147,289.649 249.5,283.5C 248.583,284.127 247.583,284.461 246.5,284.5C 246.031,283.255 245.697,283.421 245.5,285C 245.808,286.459 246.475,287.626 247.5,288.5C 260.492,302.668 273.825,316.835 287.5,331C 288.5,331.333 289.5,331.667 290.5,332C 292.733,336.294 295.9,338.794 300,339.5C 307.768,349.014 316.601,354.681 326.5,356.5C 327.197,358.385 328.197,358.718 329.5,357.5C 331.733,357.864 333.566,358.864 335,360.5C 339.78,358.962 344.447,359.295 349,361.5C 351.898,359.924 354.565,360.258 357,362.5C 358.646,360.859 359.646,361.193 360,363.5C 361.395,362.185 362.395,362.519 363,364.5C 363.718,363.549 364.551,363.383 365.5,364C 364.66,365.666 365.16,365.833 367,364.5C 367.317,366.301 367.984,366.634 369,365.5C 373.032,369.109 377.698,372.776 383,376.5C 383.333,376.167 383.667,375.833 384,375.5C 389.167,382 395,387.833 401.5,393C 401.167,393.333 400.833,393.667 400.5,394C 403.167,395.333 405.167,397.333 406.5,400C 406.167,400.333 405.833,400.667 405.5,401C 410.86,408.902 415.527,416.069 419.5,422.5C 420.079,425.331 421.412,427.664 423.5,429.5C 423.156,430.683 423.822,431.516 425.5,432C 424.167,433.84 424.334,434.34 426,433.5C 427.368,434.993 427.535,436.493 426.5,438C 428.301,438.317 428.634,438.984 427.5,440C 429.569,440.324 429.902,441.158 428.5,442.5C 428.846,443.696 429.346,443.696 430,442.5C 431.495,444.11 431.661,445.776 430.5,447.5C 431.167,447.833 431.833,448.167 432.5,448.5C 432.167,449.167 431.833,449.833 431.5,450.5C 431.846,451.696 432.346,451.696 433,450.5C 433.617,451.449 433.451,452.282 432.5,453C 433.167,453.333 433.833,453.667 434.5,454C 434.36,455.597 434.36,457.097 434.5,458.5C 435.167,458.833 435.833,459.167 436.5,459.5C 434.978,461.156 435.311,462.323 437.5,463C 436.978,463.561 436.645,464.228 436.5,465C 436.892,466.011 437.559,466.511 438.5,466.5C 436.978,468.156 437.311,469.323 439.5,470C 438.978,470.561 438.645,471.228 438.5,472C 438.892,473.011 439.559,473.511 440.5,473.5C 438.978,475.156 439.311,476.323 441.5,477C 440.338,478.827 440.672,480.494 442.5,482C 440.877,483.876 441.21,485.21 443.5,486C 443.246,488.144 443.246,490.144 443.5,492C 443.905,492.945 444.572,493.612 445.5,494C 445.488,496.988 445.488,499.988 445.5,503C 445.905,503.945 446.572,504.612 447.5,505C 446.919,505.893 446.585,506.893 446.5,508C 446.705,512.324 447.705,516.324 449.5,520C 448.178,528.803 448.178,537.637 449.5,546.5C 447.525,547.749 447.191,549.249 448.5,551C 447.692,551.308 447.025,551.808 446.5,552.5C 446.652,555.053 446.652,557.553 446.5,560C 444.396,560.489 444.062,561.655 445.5,563.5C 444.805,564.476 444.138,565.476 443.5,566.5C 366.5,566.5 289.5,566.5 212.5,566.5C 212.832,504.331 212.499,442.331 211.5,380.5C 201.374,372.642 190.374,364.475 178.5,356C 175.5,353 172.5,350 169.5,347C 169.833,346.667 170.167,346.333 170.5,346C 165.625,340.731 161.625,335.397 158.5,330C 157.837,328.482 156.837,327.315 155.5,326.5C 154.047,321.872 152.047,318.206 149.5,315.5C 148.226,314.811 148.226,313.977 149.5,313C 147.431,312.676 147.098,311.842 148.5,310.5C 148,309.5 147.5,308.5 147,307.5C 145.334,308.34 145.167,307.84 146.5,306C 144.519,305.395 144.185,304.395 145.5,303C 143.519,302.395 143.185,301.395 144.5,300C 142.519,299.395 142.185,298.395 143.5,297C 142.692,296.692 142.025,296.192 141.5,295.5C 141.88,293.979 142.046,292.313 142,290.5C 147.411,292.559 152.744,295.559 158,299.5C 173.075,311.2 188.242,323.533 203.5,336.5C 204.585,338.587 206.251,339.92 208.5,340.5C 209.167,341.833 210.167,342.833 211.5,343.5C 212.585,345.587 214.251,346.92 216.5,347.5C 218.099,349.604 219.932,351.604 222,353.5C 222.333,353.167 222.667,352.833 223,352.5C 236.03,365.196 248.696,378.196 261,391.5C 261.154,394.161 262.154,396.827 264,399.5C 264.654,398.304 265.154,398.304 265.5,399.5C 263.85,402.348 264.184,404.848 266.5,407C 265.754,409.742 265.754,412.242 266.5,414.5C 267.025,415.192 267.692,415.692 268.5,416C 268.185,418.098 268.185,420.098 268.5,422C 270.917,423.144 271.584,424.81 270.5,427C 271.167,427.333 271.833,427.667 272.5,428C 271.226,428.977 271.226,429.811 272.5,430.5C 273.079,433.331 274.412,435.664 276.5,437.5C 276.156,438.683 276.822,439.516 278.5,440C 277.655,441.558 278.321,442.558 280.5,443C 279.655,444.558 280.321,445.558 282.5,446C 281.655,447.558 282.321,448.558 284.5,449C 284.167,449.333 283.833,449.667 283.5,450C 290.135,456.319 296.801,463.319 303.5,471C 307.858,474.058 312.025,476.558 316,478.5C 317.016,477.366 317.683,477.699 318,479.5C 319.016,478.366 319.683,478.699 320,480.5C 321.016,479.366 321.683,479.699 322,481.5C 322.414,481.043 322.914,480.709 323.5,480.5C 323.833,481.167 324.167,481.833 324.5,482.5C 325.842,481.098 326.676,481.431 327,483.5C 328.597,483.36 330.097,483.36 331.5,483.5C 332.192,484.025 332.692,484.692 333,485.5C 333.561,484.978 334.228,484.645 335,484.5C 336.22,485.388 337.553,486.055 339,486.5C 344.055,485.269 349.055,485.269 354,486.5C 354.333,485.833 354.667,485.167 355,484.5C 357.017,484.925 358.851,484.925 360.5,484.5C 369.854,480.274 376.854,474.107 381.5,466C 381.167,465.667 380.833,465.333 380.5,465C 381.318,463.823 382.318,462.49 383.5,461C 383.355,460.228 383.022,459.561 382.5,459C 384.658,458.041 384.991,456.541 383.5,454.5C 386.075,451.299 386.075,448.133 383.5,445C 384.033,441.865 384.033,438.865 383.5,436C 381.519,435.395 381.185,434.395 382.5,433C 380.431,432.676 380.098,431.842 381.5,430.5C 380.833,430.167 380.167,429.833 379.5,429.5C 380.902,428.158 380.569,427.324 378.5,427C 379.447,424.223 378.447,422.223 375.5,421C 375.611,416.951 373.611,413.951 369.5,412C 370.28,410.927 370.113,409.76 369,408.5C 364.302,405.321 360.802,401.654 358.5,397.5C 357.145,395.071 355.478,393.738 353.5,393.5C 352.571,392.064 351.405,390.731 350,389.5C 349,389.5 348,389.5 347,389.5C 340.985,385.517 335.985,381.851 332,378.5C 331.667,378.833 331.333,379.167 331,379.5C 329.307,377.973 327.473,376.64 325.5,375.5C 323.936,376.186 322.269,376.019 320.5,375C 321.696,374.346 321.696,373.846 320.5,373.5C 317.586,374.315 314.919,373.649 312.5,371.5C 311.199,372.478 310.032,372.145 309,370.5C 308.228,370.645 307.561,370.978 307,371.5C 305.946,369.246 304.446,368.913 302.5,370.5C 301.304,370.154 301.304,369.654 302.5,369C 300.888,368.28 299.388,368.446 298,369.5C 297.395,367.519 296.395,367.185 295,368.5C 294.676,366.431 293.842,366.098 292.5,367.5C 291.304,367.154 291.304,366.654 292.5,366C 291.551,365.383 290.718,365.549 290,366.5C 289.722,365.584 289.222,364.918 288.5,364.5C 286.287,363.227 283.954,362.227 281.5,361.5C 278.321,360.855 274.987,358.855 271.5,355.5C 270.758,353.65 269.758,352.984 268.5,353.5C 259.331,344.498 249.998,335.665 240.5,327C 240.833,326.667 241.167,326.333 241.5,326C 233.123,315.587 225.79,305.087 219.5,294.5C 219.008,292.181 218.008,290.181 216.5,288.5C 214.833,285.833 213.167,283.167 211.5,280.5C 212.043,280.44 212.376,280.107 212.5,279.5C 211.806,277.188 210.806,275.854 209.5,275.5C 208.226,274.811 208.226,273.977 209.5,273C 207.699,272.683 207.366,272.016 208.5,271C 206.431,270.676 206.098,269.842 207.5,268.5C 206.833,268.167 206.167,267.833 205.5,267.5C 206.902,266.158 206.569,265.324 204.5,265C 204.957,264.586 205.291,264.086 205.5,263.5C 204.833,263.167 204.167,262.833 203.5,262.5C 204.902,261.158 204.569,260.324 202.5,260C 202.957,259.586 203.291,259.086 203.5,258.5C 202.833,258.167 202.167,257.833 201.5,257.5C 201.695,255.735 201.695,254.235 201.5,253C 199.431,252.676 199.098,251.842 200.5,250.5C 199.833,250.167 199.167,249.833 198.5,249.5C 198.833,248.833 199.167,248.167 199.5,247.5C 198.559,247.511 197.892,247.011 197.5,246C 197.645,245.228 197.978,244.561 198.5,244C 197.692,243.692 197.025,243.192 196.5,242.5C 196.256,240.956 196.256,239.123 196.5,237C 194.193,236.646 193.859,235.646 195.5,234C 195.095,233.055 194.428,232.388 193.5,232C 194.925,230.286 194.592,228.953 192.5,228C 193.925,226.286 193.592,224.953 191.5,224C 192.809,222.249 192.475,220.749 190.5,219.5C 191.97,217.518 191.636,215.852 189.5,214.5C 190.659,212.349 190.326,210.349 188.5,208.5C 188.608,207.558 188.941,206.725 189.5,206C 188.422,205.326 187.755,204.326 187.5,203C 188.739,197.612 188.739,192.278 187.5,187C 189.689,186.323 190.022,185.156 188.5,183.5C 188.846,182.304 189.346,182.304 190,183.5C 189.021,181.721 189.354,180.055 191,178.5C 191.333,178.833 191.667,179.167 192,179.5C 193.333,177.5 194.667,175.5 196,173.5C 197.159,174.566 197.992,174.233 198.5,172.5C 200.284,172.107 201.95,171.441 203.5,170.5C 204.222,170.082 204.722,169.416 205,168.5C 206.597,168.64 208.097,168.64 209.5,168.5C 210.192,167.975 210.692,167.308 211,166.5C 212.049,167.517 213.216,167.684 214.5,167C 213.304,166.346 213.304,165.846 214.5,165.5C 216.446,167.087 217.946,166.754 219,164.5C 221.495,165.851 223.828,165.518 226,163.5C 228.583,165.047 230.917,164.713 233,162.5C 235.42,164.131 237.42,163.797 239,161.5C 241.33,163.032 243.33,162.698 245,160.5C 246.714,161.925 248.047,161.592 249,159.5C 251.098,159.815 253.098,159.815 255,159.5C 255.354,157.193 256.354,156.859 258,158.5C 259.011,158.108 259.511,157.441 259.5,156.5C 260.451,157.326 261.451,157.492 262.5,157C 261.304,156.346 261.304,155.846 262.5,155.5C 263.167,155.833 263.833,156.167 264.5,156.5C 265.696,156.154 265.696,155.654 264.5,155C 265.993,153.632 267.493,153.465 269,154.5C 269.317,152.699 269.984,152.366 271,153.5C 271.317,151.699 271.984,151.366 273,152.5C 273.317,150.699 273.984,150.366 275,151.5C 275.333,150.833 275.667,150.167 276,149.5C 277,149.5 278,149.5 279,149.5C 282.331,147.506 285.331,144.506 288,140.5C 288.333,140.833 288.667,141.167 289,141.5C 290.713,140.122 292.047,138.455 293,136.5C 294.943,136.959 296.276,135.959 297,133.5C 297.333,133.833 297.667,134.167 298,134.5C 301.481,131.423 304.648,128.756 307.5,126.5C 308.842,127.902 309.676,127.569 310,125.5C 310.414,125.957 310.914,126.291 311.5,126.5C 311.833,125.833 312.167,125.167 312.5,124.5C 313.842,125.902 314.676,125.569 315,123.5C 317.022,124.991 318.688,124.658 320,122.5C 320.893,123.081 321.893,123.415 323,123.5C 332,120.833 341,120.833 350,123.5C 356.974,122.466 363.807,122.466 370.5,123.5C 373.544,124.651 376.544,125.651 379.5,126.5C 381.345,125.062 382.511,125.396 383,127.5C 383.414,127.043 383.914,126.709 384.5,126.5C 386.362,128.737 388.529,129.403 391,128.5C 391.324,130.569 392.158,130.902 393.5,129.5C 393.833,130.167 394.167,130.833 394.5,131.5C 395.842,130.098 396.676,130.431 397,132.5C 398.016,131.366 398.683,131.699 399,133.5C 400.016,132.366 400.683,132.699 401,134.5C 402,134.5 403,134.5 404,134.5C 411.194,140.692 418.527,146.025 426,150.5C 427.016,149.366 427.683,149.699 428,151.5C 429.016,150.366 429.683,150.699 430,152.5C 431.016,151.366 431.683,151.699 432,153.5C 433.016,152.366 433.683,152.699 434,154.5C 435.016,153.366 435.683,153.699 436,155.5C 436.414,155.043 436.914,154.709 437.5,154.5C 437.833,155.167 438.167,155.833 438.5,156.5C 439.842,155.098 440.676,155.431 441,157.5C 441.718,156.549 442.551,156.383 443.5,157C 442.304,157.654 442.304,158.154 443.5,158.5C 444.768,157.572 446.101,157.405 447.5,158C 446.304,158.654 446.304,159.154 447.5,159.5C 449.156,157.978 450.323,158.311 451,160.5C 455.732,159.591 460.232,159.591 464.5,160.5C 465.741,161.037 466.908,161.704 468,162.5C 468.772,162.355 469.439,162.022 470,161.5C 470.953,163.592 472.286,163.925 474,162.5C 475.054,164.754 476.554,165.087 478.5,163.5C 478.833,164.167 479.167,164.833 479.5,165.5C 480.167,165.167 480.833,164.833 481.5,164.5C 481.833,165.167 482.167,165.833 482.5,166.5C 483.842,165.098 484.676,165.431 485,167.5C 486.395,166.185 487.395,166.519 488,168.5C 489.395,167.185 490.395,167.519 491,169.5C 491.718,168.549 492.551,168.383 493.5,169C 492.66,170.666 493.16,170.833 495,169.5C 495.317,171.301 495.984,171.634 497,170.5C 497.324,172.569 498.158,172.902 499.5,171.5C 500.696,171.846 500.696,172.346 499.5,173C 500.5,173.5 501.5,174 502.5,174.5C 503.773,174.254 504.94,174.254 506,174.5C 509.719,178.042 513.886,181.042 518.5,183.5 Z"/></g>
<g><path style="opacity:1" fill="#777777" d="M 203.5,170.5 C 201.95,171.441 200.284,172.107 198.5,172.5C 199.823,170.318 201.49,169.651 203.5,170.5 Z"/></g>
<g><path style="opacity:1" fill="#757575" d="M 521.5,185.5 C 519.973,185.573 518.973,184.906 518.5,183.5C 519.758,182.984 520.758,183.65 521.5,185.5 Z"/></g>
<g><path style="opacity:1" fill="#717171" d="M 549.5,217.5 C 551.008,219.181 552.008,221.181 552.5,223.5C 550.821,222 549.488,220.167 548.5,218C 548.728,217.601 549.062,217.435 549.5,217.5 Z"/></g>
<g><path style="opacity:1" fill="#7d7d7d" d="M 287.5,256.5 C 290.562,258.51 292.562,260.843 293.5,263.5C 290.438,261.49 288.438,259.157 287.5,256.5 Z"/></g>
<g><path style="opacity:1" fill="#797979" d="M 314.5,265.5 C 312.251,264.92 310.585,263.587 309.5,261.5C 311.478,261.738 313.145,263.071 314.5,265.5 Z"/></g>
<g><path style="opacity:1" fill="#6f6f6f" d="M 271.5,267.5 C 273.674,267.75 275.341,268.75 276.5,270.5C 273.811,270.054 272.144,269.054 271.5,267.5 Z"/></g>
<g><path style="opacity:1" fill="#909090" d="M 211.5,280.5 C 210.559,278.95 209.893,277.284 209.5,275.5C 210.806,275.854 211.806,277.188 212.5,279.5C 212.376,280.107 212.043,280.44 211.5,280.5 Z"/></g>
<g><path style="opacity:1" fill="#787878" d="M 273.5,279.5 C 275.929,280.855 277.262,282.522 277.5,284.5C 275.071,283.145 273.738,281.478 273.5,279.5 Z"/></g>
<g><path style="opacity:1" fill="#787878" d="M 334.5,282.5 C 332.973,282.573 331.973,281.906 331.5,280.5C 332.758,279.984 333.758,280.65 334.5,282.5 Z"/></g>
<g><path style="opacity:1" fill="#767676" d="M 299.5,287.5 C 297.973,287.573 296.973,286.906 296.5,285.5C 297.758,284.984 298.758,285.65 299.5,287.5 Z"/></g>
<g><path style="opacity:1" fill="#757575" d="M 246.5,284.5 C 247.028,285.721 247.695,286.887 248.5,288C 248.272,288.399 247.938,288.565 247.5,288.5C 246.475,287.626 245.808,286.459 245.5,285C 245.697,283.421 246.031,283.255 246.5,284.5 Z"/></g>
<g><path style="opacity:1" fill="#838383" d="M 216.5,288.5 C 218.008,290.181 219.008,292.181 219.5,294.5C 217.821,293 216.488,291.167 215.5,289C 215.728,288.601 216.062,288.435 216.5,288.5 Z"/></g>
<g><path style="opacity:1" fill="#777777" d="M 311.5,297.5 C 309.596,297.262 308.262,296.262 307.5,294.5C 309.129,294.372 310.462,295.372 311.5,297.5 Z"/></g>
<g><path style="opacity:1" fill="#777777" d="M 561.5,291.5 C 562.097,291.735 562.43,292.235 562.5,293C 562.212,295.146 561.545,296.313 560.5,296.5C 560.629,294.784 560.962,293.117 561.5,291.5 Z"/></g>
<g><path style="opacity:1" fill="#787878" d="M 290.5,314.5 C 288.596,314.262 287.262,313.262 286.5,311.5C 288.129,311.372 289.462,312.372 290.5,314.5 Z"/></g>
<g><path style="opacity:1" fill="#646464" d="M 337.5,314.5 C 335.316,315.108 333.316,314.441 331.5,312.5C 331.435,312.062 331.601,311.728 332,311.5C 333.78,312.639 335.614,313.639 337.5,314.5 Z"/></g>
<g><path style="opacity:1" fill="#727272" d="M 155.5,326.5 C 152.742,323.322 150.742,319.655 149.5,315.5C 152.047,318.206 154.047,321.872 155.5,326.5 Z"/></g>
<g><path style="opacity:1" fill="#737373" d="M 555.5,311.5 C 554.258,315.655 552.258,319.322 549.5,322.5C 550.953,317.872 552.953,314.206 555.5,311.5 Z"/></g>
<g><path style="opacity:1" fill="#808080" d="M 208.5,340.5 C 206.251,339.92 204.585,338.587 203.5,336.5C 205.478,336.738 207.145,338.071 208.5,340.5 Z"/></g>
<g><path style="opacity:1" fill="#787878" d="M 540.5,336.5 C 541.016,337.758 540.35,338.758 538.5,339.5C 538.427,337.973 539.094,336.973 540.5,336.5 Z"/></g>
<g><path style="opacity:1" fill="#787878" d="M 537.5,340.5 C 538.016,341.758 537.35,342.758 535.5,343.5C 535.427,341.973 536.094,340.973 537.5,340.5 Z"/></g>
<g><path style="opacity:1" fill="#7d7d7d" d="M 216.5,347.5 C 214.251,346.92 212.585,345.587 211.5,343.5C 213.478,343.738 215.145,345.071 216.5,347.5 Z"/></g>
<g><path style="opacity:1" fill="#767676" d="M 407.5,351.5 C 408.906,351.973 409.573,352.973 409.5,354.5C 407.65,353.758 406.984,352.758 407.5,351.5 Z"/></g>
<g><path style="opacity:1" fill="#757575" d="M 271.5,355.5 C 269.973,355.573 268.973,354.906 268.5,353.5C 269.758,352.984 270.758,353.65 271.5,355.5 Z"/></g>
<g><path style="opacity:1" fill="#6d6d6d" d="M 281.5,361.5 C 283.954,362.227 286.287,363.227 288.5,364.5C 288.44,365.043 288.107,365.376 287.5,365.5C 285.089,364.639 283.089,363.306 281.5,361.5 Z"/></g>
<g><path style="opacity:1" fill="#7f7f7f" d="M 211.5,380.5 C 212.499,442.331 212.832,504.331 212.5,566.5C 289.5,566.5 366.5,566.5 443.5,566.5C 366.904,567.5 289.571,567.833 211.5,567.5C 211.5,505.167 211.5,442.833 211.5,380.5 Z"/></g>
<g><path style="opacity:1" fill="#0a0a0a" d="M 294.5,410.5 C 292.251,411.08 290.585,412.413 289.5,414.5C 288.115,415.574 286.949,416.907 286,418.5C 284.984,417.366 284.317,417.699 284,419.5C 282.667,418.167 281.333,418.167 280,419.5C 279.308,418.975 278.808,418.308 278.5,417.5C 279.803,413.968 279.803,410.468 278.5,407C 280.569,406.676 280.902,405.842 279.5,404.5C 280.891,404.891 281.891,404.058 282.5,402C 282.167,401.667 281.833,401.333 281.5,401C 283.679,400.558 284.345,399.558 283.5,398C 286.521,396.404 289.188,394.237 291.5,391.5C 291.435,391.938 291.601,392.272 292,392.5C 293.78,391.361 295.614,390.361 297.5,389.5C 298.222,389.082 298.722,388.416 299,387.5C 299.414,387.957 299.914,388.291 300.5,388.5C 304.988,385.822 309.321,386.155 313.5,389.5C 308.876,396.857 302.543,403.857 294.5,410.5 Z"/></g>
<g><path style="opacity:1" fill="#7d7d7d" d="M 297.5,389.5 C 295.614,390.361 293.78,391.361 292,392.5C 291.601,392.272 291.435,391.938 291.5,391.5C 293.316,389.559 295.316,388.892 297.5,389.5 Z"/></g>
<g><path style="opacity:1" fill="#7d7d7d" d="M 358.5,397.5 C 356.522,397.262 354.855,395.929 353.5,393.5C 355.478,393.738 357.145,395.071 358.5,397.5 Z"/></g>
<g><path style="opacity:1" fill="#838383" d="M 491.5,397.5 C 492.661,411.661 492.827,425.994 492,440.5C 491.283,439.956 490.783,439.289 490.5,438.5C 491.496,425.01 491.829,411.344 491.5,397.5 Z"/></g>
<g><path style="opacity:1" fill="#727272" d="M 294.5,410.5 C 293.145,412.929 291.478,414.262 289.5,414.5C 290.585,412.413 292.251,411.08 294.5,410.5 Z"/></g>
<g><path style="opacity:1" fill="#848484" d="M 419.5,422.5 C 421.588,424.336 422.921,426.669 423.5,429.5C 421.412,427.664 420.079,425.331 419.5,422.5 Z"/></g>
<g><path style="opacity:1" fill="#737373" d="M 276.5,437.5 C 274.412,435.664 273.079,433.331 272.5,430.5C 274.385,431.846 275.718,434.179 276.5,437.5 Z"/></g>
</svg>
